<svg width="420" height="420" viewBox="0 0 420 420" fill="none" xmlns="http://www.w3.org/2000/svg">
<path d="M420 321.216H0V321.426H420V321.216Z" fill="#EBEBEB"/>
<path d="M377.916 334.732H333.337V334.942H377.916V334.732Z" fill="#EBEBEB"/>
<path d="M278.225 332.102H228.95V332.312H278.225V332.102Z" fill="#EBEBEB"/>
<path d="M335.488 330.893H319.368V331.103H335.488V330.893Z" fill="#EBEBEB"/>
<path d="M120.674 328.348H84.3948V328.558H120.674V328.348Z" fill="#EBEBEB"/>
<path d="M79.7159 328.348H66.7463V328.558H79.7159V328.348Z" fill="#EBEBEB"/>
<path d="M155.963 331.892H110.435V332.102H155.963V331.892Z" fill="#EBEBEB"/>
<path d="M199.08 283.752H36.8844C35.6138 283.75 34.396 283.243 33.4983 282.344C32.6006 281.445 32.0964 280.226 32.0964 278.956V50.9544C32.1075 49.6911 32.6166 48.4831 33.513 47.5929C34.4095 46.7027 35.6211 46.2022 36.8844 46.2H199.08C200.352 46.2 201.572 46.7053 202.472 47.6048C203.371 48.5043 203.876 49.7243 203.876 50.9964V278.956C203.876 280.228 203.371 281.448 202.472 282.347C201.572 283.247 200.352 283.752 199.08 283.752ZM36.8844 46.368C35.6695 46.3702 34.5051 46.8544 33.6468 47.7143C32.7885 48.5742 32.3064 49.7395 32.3064 50.9544V278.956C32.3064 280.171 32.7885 281.336 33.6468 282.196C34.5051 283.056 35.6695 283.54 36.8844 283.542H199.08C200.296 283.54 201.461 283.056 202.321 282.196C203.18 281.337 203.664 280.171 203.666 278.956V50.9544C203.664 49.7387 203.18 48.5734 202.321 47.7138C201.461 46.8542 200.296 46.3702 199.08 46.368H36.8844Z" fill="#EBEBEB"/>
<path d="M380.78 283.752H218.576C217.305 283.75 216.086 283.244 215.187 282.345C214.288 281.446 213.782 280.227 213.78 278.956V50.9544C213.793 49.6903 214.304 48.4824 215.202 47.5924C216.1 46.7024 217.312 46.2022 218.576 46.2H380.78C382.042 46.2044 383.252 46.7059 384.146 47.5959C385.041 48.4858 385.549 49.6925 385.56 50.9544V278.956C385.56 280.225 385.057 281.442 384.161 282.341C383.265 283.24 382.05 283.748 380.78 283.752ZM218.576 46.368C217.361 46.3702 216.195 46.8542 215.336 47.7138C214.476 48.5734 213.992 49.7387 213.99 50.9544V278.956C213.992 280.171 214.476 281.337 215.336 282.196C216.195 283.056 217.361 283.54 218.576 283.542H380.78C381.996 283.54 383.161 283.056 384.021 282.196C384.881 281.337 385.365 280.171 385.367 278.956V50.9544C385.365 49.7387 384.881 48.5734 384.021 47.7138C383.161 46.8542 381.996 46.3702 380.78 46.368H218.576Z" fill="#EBEBEB"/>
<path d="M98.6663 260.215H47.6531C45.2778 260.215 43.3523 262.141 43.3523 264.516V266.372C43.3523 268.748 45.2778 270.673 47.6531 270.673H98.6663C101.042 270.673 102.967 268.748 102.967 266.372V264.516C102.967 262.141 101.042 260.215 98.6663 260.215Z" fill="#EBEBEB"/>
<path d="M59.892 270.673H51.5004L41.958 321.216H50.3496L59.892 270.673Z" fill="#E0E0E0"/>
<path d="M76.6416 270.673H68.25L63.5544 321.216H71.946L76.6416 270.673Z" fill="#E0E0E0"/>
<path d="M86.4275 270.673H94.8191L104.37 321.216H95.9783L86.4275 270.673Z" fill="#E0E0E0"/>
<path d="M361.88 59.346H165.615V230.328H361.88V59.346Z" fill="#E6E6E6"/>
<path d="M367.769 59.346H168.361V230.328H367.769V59.346Z" fill="#F0F0F0"/>
<path d="M361.88 230.336H165.615V233.646H361.88V230.336Z" fill="#E6E6E6"/>
<path d="M370.911 230.336H171.503V233.646H370.911V230.336Z" fill="#F0F0F0"/>
<path d="M359.52 225.019V64.6632L176.602 64.6632V225.019H359.52Z" fill="#FAFAFA"/>
<path d="M235.083 225.019L269.565 64.6632H292.404L257.922 225.019H235.083Z" fill="white"/>
<path d="M208.421 225.019L242.903 64.6632H265.743L231.261 225.019H208.421Z" fill="white"/>
<path d="M180.911 65.1V214.939C180.911 215.183 181.213 215.376 181.583 215.376H182.473C182.843 215.376 183.145 215.183 183.145 214.939V65.1C183.145 64.8564 182.843 64.6632 182.473 64.6632H181.583C181.213 64.68 180.911 64.8564 180.911 65.1Z" fill="#F0F0F0"/>
<path d="M293.815 225.019L328.297 64.6632H337.201L302.719 225.019H293.815Z" fill="white"/>
<path d="M359.52 225.019V64.6632H358.47V225.019H359.52Z" fill="#E6E6E6"/>
<path opacity="0.5" d="M369.718 71.316H173.452L172.687 66.7296H368.962L369.718 71.316Z" fill="#E0E0E0"/>
<path opacity="0.5" d="M369.718 87.0576H173.452L172.687 82.4628H368.962L369.718 87.0576Z" fill="#E0E0E0"/>
<path opacity="0.5" d="M369.718 102.791H173.452L172.687 98.2044H368.962L369.718 102.791Z" fill="#E0E0E0"/>
<path opacity="0.5" d="M369.718 118.532H173.452L172.687 113.946H368.962L369.718 118.532Z" fill="#E0E0E0"/>
<path opacity="0.5" d="M369.718 134.266H173.452L172.687 129.679H368.962L369.718 134.266Z" fill="#E0E0E0"/>
<path opacity="0.5" d="M369.718 150.007H173.452L172.687 145.421H368.962L369.718 150.007Z" fill="#E0E0E0"/>
<path opacity="0.5" d="M369.718 79.1868H173.452L172.687 74.6004H368.962L369.718 79.1868Z" fill="#E0E0E0"/>
<path opacity="0.5" d="M369.718 94.92H173.452L172.687 90.3336H368.962L369.718 94.92Z" fill="#E0E0E0"/>
<path opacity="0.5" d="M369.718 110.662H173.452L172.687 106.075H368.962L369.718 110.662Z" fill="#E0E0E0"/>
<path opacity="0.5" d="M369.718 126.395H173.452L172.687 121.808H368.962L369.718 126.395Z" fill="#E0E0E0"/>
<path opacity="0.5" d="M369.718 142.136H173.452L172.687 137.55H368.962L369.718 142.136Z" fill="#E0E0E0"/>
<path opacity="0.5" d="M369.718 157.878H173.452L172.687 153.292H368.962L369.718 157.878Z" fill="#E0E0E0"/>
<path d="M361.88 243.298H335.891V321.216H361.88V243.298Z" fill="#E6E6E6"/>
<path d="M346.046 321.216H361.88V312.27H329.448L346.046 321.216Z" fill="#EBEBEB"/>
<path d="M283.979 243.298H257.989V321.216H283.979V243.298Z" fill="#E6E6E6"/>
<path d="M361.88 243.298H270.169V319.36H361.88V243.298Z" fill="#EBEBEB"/>
<path d="M286.003 321.216H270.169V312.27H302.602L286.003 321.216Z" fill="#EBEBEB"/>
<path d="M349.6 252.067H282.45V291.253H349.6V252.067Z" fill="#FAFAFA"/>
<path d="M349.6 295.243H282.45V313.891H349.6V295.243Z" fill="#FAFAFA"/>
<path d="M322.283 254.066H309.767C308.81 254.064 307.894 253.683 307.218 253.005C306.542 252.328 306.163 251.411 306.163 250.454H325.92C325.92 250.931 325.826 251.403 325.643 251.842C325.459 252.282 325.191 252.682 324.853 253.017C324.515 253.353 324.114 253.619 323.673 253.799C323.232 253.979 322.759 254.07 322.283 254.066Z" fill="#EBEBEB"/>
<path d="M322.283 297.234H309.767C308.811 297.234 307.894 296.854 307.219 296.179C306.543 295.503 306.163 294.586 306.163 293.63H325.92C325.92 294.107 325.826 294.578 325.642 295.017C325.459 295.457 325.191 295.855 324.853 296.191C324.514 296.526 324.113 296.79 323.672 296.969C323.231 297.149 322.759 297.238 322.283 297.234Z" fill="#EBEBEB"/>
<path d="M263.138 243.298H237.149V321.216H263.138V243.298Z" fill="#E6E6E6"/>
<path d="M247.313 321.216H263.138V312.27H230.714L247.313 321.216Z" fill="#EBEBEB"/>
<path d="M185.245 243.298H159.256V321.216H185.245V243.298Z" fill="#E6E6E6"/>
<path d="M263.147 243.298H171.436V319.36H263.147V243.298Z" fill="#EBEBEB"/>
<path d="M187.261 321.216H171.436V312.27H203.86L187.261 321.216Z" fill="#EBEBEB"/>
<path d="M250.866 252.067H183.716V291.253H250.866V252.067Z" fill="#FAFAFA"/>
<path d="M250.866 295.243H183.716V313.891H250.866V295.243Z" fill="#FAFAFA"/>
<path d="M223.541 254.066H211.033C210.076 254.064 209.158 253.683 208.482 253.006C207.805 252.329 207.423 251.412 207.421 250.454H227.153C227.153 251.412 226.772 252.331 226.095 253.008C225.417 253.686 224.499 254.066 223.541 254.066Z" fill="#EBEBEB"/>
<path d="M223.541 297.234H211.033C210.077 297.234 209.159 296.855 208.482 296.179C207.805 295.503 207.423 294.587 207.421 293.63H227.153C227.153 294.104 227.059 294.574 226.878 295.011C226.696 295.449 226.43 295.847 226.094 296.182C225.759 296.516 225.361 296.782 224.922 296.962C224.484 297.143 224.015 297.235 223.541 297.234Z" fill="#EBEBEB"/>
<path d="M171.704 243.298L361.88 243.298V240.03L171.704 240.03V243.298Z" fill="#F0F0F0"/>
<path d="M171.704 240.022H159.256V243.289H171.704V240.022Z" fill="#E0E0E0"/>
<path d="M70.8877 247.699C69.7033 217.174 68.4433 186.824 71.0305 171.511L75.2305 168.538C75.2305 168.538 74.3065 171.385 73.8193 218.156C73.3321 264.928 72.7357 240.752 73.2481 247.699H70.8877Z" fill="#E6E6E6"/>
<path d="M77.6749 139.44C84.1681 122.522 99.2965 106.184 115.727 99.498C122.178 96.8772 112.888 154.577 89.4937 158.298C78.0697 160.112 74.5081 189.378 72.5845 203.406C71.9293 175.77 71.1817 156.358 77.6749 139.44Z" fill="#E6E6E6"/>
<path d="M76.2888 182.389C80.8584 175.148 88.326 165.001 99.2376 164.993C111.602 164.993 100.783 185.354 86.2428 191.873C79.1448 195.048 73.2227 205.128 71.6855 211.445C71.8199 198.635 71.7191 189.63 76.2888 182.389Z" fill="#E6E6E6"/>
<path d="M65.1673 160.499C57.2209 146.42 39.5136 132.258 20.6473 125.815C13.2469 123.295 12.5161 164.993 52.416 174.972C65.3101 178.198 70.4761 201.012 73.1473 212.486C72.9373 190.201 73.0801 174.577 65.1673 160.499Z" fill="#E6E6E6"/>
<path d="M69.5183 193.88C64.4783 184.909 50.6855 180.524 38.3039 181.364C33.4487 181.692 32.9111 200.105 59.9507 207.22C68.1491 209.378 71.4587 223.818 73.1639 231.126C73.0211 216.93 74.5751 202.86 69.5183 193.88Z" fill="#E6E6E6"/>
<path d="M70.0393 146.479C66.0997 133.93 54.4993 122.682 43.8565 118.037C39.6565 116.214 38.3881 137.021 61.2445 157.391C68.1745 163.573 70.3585 181.574 71.4925 190.697C72.0049 174.409 73.9789 159.029 70.0393 146.479Z" fill="#E6E6E6"/>
<path d="M72.1225 260.215C63.8065 260.215 56.9353 259.61 56.4649 248.363L55.0789 233.604H89.1745L87.7885 248.363C87.3097 259.61 80.4385 260.215 72.1225 260.215Z" fill="#F0F0F0"/>
<path d="M89.3004 239.686H54.9528L53.97 232.772H90.2832L89.3004 239.686Z" fill="#F0F0F0"/>
<path d="M210 359.15C299.949 359.15 372.868 354.893 372.868 349.642C372.868 344.39 299.949 340.133 210 340.133C120.051 340.133 47.1323 344.39 47.1323 349.642C47.1323 354.893 120.051 359.15 210 359.15Z" fill="#F5F5F5"/>
<path d="M60.9391 82.0088L60.1001 82.0497L60.9232 98.9388L61.7622 98.8979L60.9391 82.0088Z" fill="#5469D4"/>
<path d="M62.0294 104.61L61.1904 104.651L61.5948 112.949L62.4338 112.908L62.0294 104.61Z" fill="#5469D4"/>
<path d="M324.862 253.445H72.8028C72.4163 253.443 72.0456 253.291 71.7684 253.022C71.4912 252.753 71.3291 252.386 71.316 252L62.2776 66.36C62.2686 66.1592 62.3003 65.9586 62.3709 65.7704C62.4416 65.5822 62.5496 65.4102 62.6886 65.265C62.8276 65.1197 62.9946 65.0042 63.1795 64.9253C63.3644 64.8464 63.5634 64.8058 63.7644 64.806H315.84C316.222 64.8054 316.591 64.9514 316.869 65.2139C317.147 65.4763 317.314 65.8354 317.335 66.2172L326.374 251.924C326.377 252.124 326.34 252.323 326.266 252.508C326.191 252.694 326.08 252.862 325.939 253.004C325.798 253.146 325.63 253.258 325.445 253.334C325.26 253.409 325.062 253.447 324.862 253.445Z" fill="#5469D4"/>
<path opacity="0.8" d="M74.2139 248.976L65.4695 69.3672C65.4605 69.166 65.4922 68.965 65.5627 68.7763C65.6333 68.5876 65.7412 68.4152 65.8801 68.2693C66.0189 68.1233 66.1858 68.007 66.3708 67.9272C66.5557 67.8474 66.7549 67.8057 66.9563 67.8048H312.917C313.3 67.8044 313.668 67.9518 313.945 68.2163C314.222 68.4807 314.386 68.8419 314.404 69.2244L323.148 248.833C323.158 249.035 323.127 249.236 323.057 249.425C322.987 249.615 322.879 249.788 322.74 249.934C322.601 250.08 322.434 250.196 322.248 250.276C322.063 250.355 321.863 250.396 321.661 250.396H75.7007C75.3184 250.394 74.9512 250.246 74.6747 249.982C74.3981 249.718 74.2333 249.358 74.2139 248.976Z" fill="white"/>
<path d="M135.996 240.358C135.801 240.356 135.614 240.281 135.472 240.147C135.33 240.013 135.244 239.83 135.232 239.635L127.394 78.6408C127.38 78.5353 127.387 78.4279 127.416 78.3255C127.445 78.2231 127.496 78.1278 127.564 78.0459C127.632 77.9641 127.716 77.8973 127.812 77.8499C127.907 77.8026 128.011 77.7757 128.118 77.771C128.224 77.7663 128.33 77.7839 128.429 77.8226C128.529 77.8614 128.619 77.9204 128.694 77.996C128.769 78.0716 128.827 78.162 128.865 78.2615C128.903 78.3609 128.92 78.4673 128.915 78.5736L136.76 239.56C136.765 239.66 136.75 239.76 136.715 239.855C136.681 239.949 136.628 240.036 136.56 240.11C136.493 240.184 136.411 240.244 136.32 240.287C136.229 240.329 136.13 240.353 136.03 240.358H135.996Z" fill="white"/>
<path d="M260.467 240.358C260.272 240.356 260.085 240.281 259.943 240.147C259.801 240.013 259.715 239.83 259.703 239.635L251.866 78.6408C251.851 78.5353 251.858 78.4279 251.887 78.3255C251.916 78.2231 251.967 78.1278 252.035 78.0459C252.103 77.9641 252.187 77.8973 252.283 77.8499C252.378 77.8026 252.482 77.7757 252.589 77.771C252.695 77.7663 252.801 77.7839 252.901 77.8226C253 77.8614 253.09 77.9204 253.165 77.996C253.24 78.0716 253.298 78.162 253.336 78.2615C253.375 78.3609 253.391 78.4673 253.386 78.5736L261.24 239.56C261.244 239.66 261.229 239.76 261.195 239.855C261.161 239.949 261.108 240.036 261.04 240.11C260.972 240.184 260.89 240.244 260.799 240.287C260.708 240.329 260.61 240.353 260.509 240.358H260.467Z" fill="white"/>
<path d="M198.24 240.358C198.045 240.356 197.858 240.281 197.716 240.147C197.574 240.013 197.488 239.83 197.476 239.635L189.63 78.6408C189.615 78.5353 189.623 78.4279 189.652 78.3255C189.681 78.2231 189.731 78.1278 189.799 78.0459C189.867 77.9641 189.952 77.8973 190.047 77.8499C190.143 77.8026 190.247 77.7757 190.353 77.771C190.46 77.7663 190.566 77.7839 190.665 77.8226C190.764 77.8614 190.854 77.9204 190.929 77.996C191.004 78.0716 191.063 78.162 191.101 78.2615C191.139 78.3609 191.156 78.4673 191.15 78.5736L198.988 239.56C198.993 239.66 198.979 239.76 198.946 239.854C198.912 239.949 198.86 240.035 198.793 240.11C198.726 240.184 198.645 240.244 198.554 240.287C198.463 240.329 198.365 240.353 198.265 240.358H198.24Z" fill="white"/>
<path d="M307.978 95.2308H74.3483C74.2418 95.2421 74.1341 95.2307 74.0322 95.1977C73.9303 95.1646 73.8365 95.1104 73.7569 95.0387C73.6772 94.9671 73.6136 94.8794 73.57 94.7816C73.5264 94.6837 73.5039 94.5778 73.5039 94.4706C73.5039 94.3635 73.5264 94.2576 73.57 94.1597C73.6136 94.0618 73.6772 93.9742 73.7569 93.9025C73.8365 93.8309 73.9303 93.7767 74.0322 93.7436C74.1341 93.7105 74.2418 93.6992 74.3483 93.7104H307.978C308.084 93.6992 308.192 93.7105 308.294 93.7436C308.396 93.7767 308.489 93.8309 308.569 93.9025C308.649 93.9742 308.712 94.0618 308.756 94.1597C308.799 94.2576 308.822 94.3635 308.822 94.4706C308.822 94.5778 308.799 94.6837 308.756 94.7816C308.712 94.8794 308.649 94.9671 308.569 95.0387C308.489 95.1104 308.396 95.1646 308.294 95.1977C308.192 95.2307 308.084 95.2421 307.978 95.2308Z" fill="white"/>
<path d="M81.3876 85.8228C81.9311 85.6051 82.518 85.5176 83.1014 85.5672C83.6848 85.6168 84.2486 85.8021 84.7476 86.1084C85.5876 86.646 86.1 87.7884 87.1584 88.0404C88.3596 88.284 88.7292 87.3012 89.5776 86.7384C90.6528 86.0244 92.2908 86.3436 93.492 86.436C96.6784 86.6712 99.862 86.9512 103.043 87.276C106.184 87.5784 109.36 88.116 112.493 87.5028C113.576 87.2928 113.114 85.638 112.039 85.8228C108.83 86.4528 105.428 85.764 102.211 85.4532C98.994 85.1424 95.7516 84.8484 92.5092 84.6132C91.4018 84.4765 90.2778 84.5972 89.2248 84.966C88.728 85.1863 88.2819 85.5065 87.9144 85.9068C87.78 86.0412 87.6456 86.3184 87.4272 86.2848C87.2088 86.2512 86.9652 85.7556 86.8812 85.6548C86.1505 84.8299 85.1887 84.2439 84.1206 83.9727C83.0525 83.7016 81.9276 83.7579 80.892 84.1344C79.8756 84.5376 80.3124 86.1924 81.3456 85.8144L81.3876 85.8228Z" fill="white"/>
<path d="M138.104 88.3429C139.381 87.3853 141.305 86.1085 142.355 88.0237C142.884 88.9813 143.396 90.1321 144.715 89.9305C146.034 89.7289 146.908 88.0909 147.832 87.3181C149.209 86.1505 150.604 85.8061 152.216 86.7469C153.472 87.6547 154.902 88.2925 156.416 88.6201C157.869 88.8008 159.343 88.5649 160.667 87.9397C161.427 87.5072 162.262 87.2222 163.128 87.0997C164.047 87.1704 164.961 87.291 165.866 87.4609C167.826 87.5366 169.786 87.3501 171.696 86.9065C172.78 86.7049 172.318 85.0501 171.234 85.2265C169.161 85.7194 167.016 85.8417 164.9 85.5877C164.133 85.4099 163.342 85.3532 162.557 85.4197C161.816 85.5511 161.098 85.7858 160.423 86.1169C158.668 86.8813 156.971 87.2509 155.131 86.4361C153.703 85.8061 152.611 84.6385 150.998 84.4033C149.659 84.2676 148.32 84.6627 147.269 85.5037C146.67 85.9693 146.109 86.4805 145.589 87.0325C145.36 87.3304 145.11 87.6111 144.841 87.8725C144.421 88.1833 144.388 88.1497 144.136 87.6877C143.522 86.5369 142.934 85.5961 141.557 85.3189C139.919 84.9913 138.507 85.8817 137.256 86.8225C136.416 87.4777 137.256 88.9645 138.096 88.3009L138.104 88.3429Z" fill="white"/>
<path d="M202.44 87.8724C203.44 87.402 204.456 86.9736 205.498 86.604C206.513 86.1566 207.594 85.8731 208.698 85.764C209.664 85.764 210.513 86.3184 211.437 86.52C212.147 86.6785 212.89 86.6018 213.553 86.3016C214.158 86.0244 214.78 85.344 215.435 85.2348C216.09 85.1256 216.812 85.9908 217.459 86.2848C218.115 86.5584 218.833 86.6428 219.534 86.5284C220.181 86.4528 221.13 86.1168 221.735 86.5284C222.34 86.94 222.466 87.6708 223.07 88.032C223.33 88.1888 223.624 88.2772 223.927 88.2889C224.23 88.3007 224.53 88.2354 224.801 88.0992C225.406 87.8052 225.733 87.2592 226.237 86.8224C226.976 86.2008 227.833 86.5452 228.682 86.7468C229.442 86.9658 230.237 87.0399 231.025 86.9652C231.907 86.8476 232.932 86.2848 233.822 86.4612C235.301 86.7552 236.065 88.3176 237.712 87.5112C238.703 87.024 237.838 85.5456 236.872 86.0328C236.452 86.2344 235.234 85.1928 234.83 84.9912C234.107 84.7116 233.314 84.6646 232.562 84.8568C231.67 85.153 230.73 85.2812 229.79 85.2348C229.004 85.0313 228.208 84.8687 227.405 84.7476C226.694 84.6872 225.984 84.8839 225.406 85.302C225.078 85.5456 224.373 86.6292 223.944 86.5368C223.751 86.5368 223.44 85.8564 223.322 85.6968C223.131 85.439 222.895 85.2171 222.625 85.0416C222.035 84.7118 221.355 84.5822 220.685 84.672C219.938 84.8583 219.165 84.9123 218.4 84.8316C217.678 84.6216 217.199 83.916 216.476 83.664C214.847 83.1012 214.066 84.4368 212.671 84.8484C211.772 85.1088 210.848 84.4704 210 84.2436C209.122 84.0126 208.199 84.0126 207.32 84.2436C205.348 84.7791 203.432 85.5049 201.6 86.4108C200.609 86.8812 201.474 88.3596 202.44 87.8892V87.8724Z" fill="white"/>
<path d="M259.686 87.4104L264.264 86.1084C264.986 85.8984 265.717 85.6464 266.448 85.4868C267.165 85.3775 267.898 85.5105 268.531 85.8648C269.773 86.2451 271.074 86.3932 272.37 86.3016C273.899 86.3016 275.419 86.3016 276.948 86.2428L295.68 86.016C295.903 86.016 296.116 85.9275 296.274 85.77C296.431 85.6124 296.52 85.3988 296.52 85.176C296.52 84.9532 296.431 84.7396 296.274 84.582C296.116 84.4245 295.903 84.336 295.68 84.336L276.553 84.5712C275.05 84.5712 273.546 84.6216 272.042 84.63C271.3 84.6579 270.557 84.6101 269.825 84.4872C269.136 84.336 268.556 83.9496 267.893 83.7648C266.641 83.4204 265.213 84.0924 264.029 84.4368L259.258 85.7976C259.147 85.8274 259.044 85.8786 258.953 85.9483C258.863 86.0181 258.787 86.1049 258.73 86.204C258.673 86.3031 258.636 86.4124 258.621 86.5257C258.607 86.639 258.615 86.7541 258.644 86.8644C258.674 86.9747 258.725 87.0781 258.795 87.1686C258.865 87.2591 258.952 87.335 259.051 87.392C259.15 87.4489 259.259 87.4858 259.372 87.5005C259.486 87.5152 259.601 87.5074 259.711 87.4776L259.686 87.4104Z" fill="white"/>
<path opacity="0.3" d="M137.382 154.056L96.8185 156.24C94.6229 142.572 93.5414 128.747 93.5845 114.904L133.216 113.4C133.845 127.019 135.236 140.592 137.382 154.056Z" fill="#5469D4"/>
<path d="M138.306 152.2L97.7425 154.384C95.4204 140.937 94.0171 127.348 93.5425 113.711L134.106 111.518C134.747 125.147 136.149 138.728 138.306 152.2Z" fill="#5469D4"/>
<path opacity="0.3" d="M188.471 168.966L147.689 166.505V126.084L188.471 128.545V168.966Z" fill="#5469D4"/>
<path d="M187.933 168.059L147.16 165.598L147.638 124.942L188.412 127.394L187.933 168.059Z" fill="white"/>
<path opacity="0.3" d="M227.346 161.045L268.111 159.709C269.119 150.326 264.684 126.748 262.231 118.364L222.692 120.884C226.078 135.752 227.531 149.747 227.346 161.045Z" fill="#5469D4"/>
<path d="M228.043 159.709L267.523 157.676C268.531 148.302 265.919 132.938 262.97 117.029L222.449 119.599C225.792 134.484 228.228 148.411 228.043 159.709Z" fill="#5469D4"/>
<path opacity="0.3" d="M115.55 223.532L157.164 219.332C157.055 209.84 152.174 187.799 149.285 179.542L110.04 184.178C114.24 198.895 114.391 212.234 115.55 223.532Z" fill="#5469D4"/>
<path d="M116.533 222.953L156.652 218.593C157.147 209.152 153.703 193.906 149.932 178.147L109.712 182.927C112.946 197.677 116.096 211.68 116.533 222.953Z" fill="#5469D4"/>
<path opacity="0.3" d="M216.72 178.256L257.225 185.816C260.266 176.98 261.047 153.25 260.459 144.656L220.92 138.466C220.962 153.569 219.332 167.395 216.72 178.256Z" fill="#5469D4"/>
<path d="M217.669 177.122L257.023 183.758C260.072 174.922 260.845 159.524 261.416 143.531L220.87 137.18C220.92 152.284 220.315 166.261 217.669 177.122Z" fill="white"/>
<path d="M313.018 140.515C313.858 141.355 314.496 142.111 315.193 142.934C315.891 143.758 316.563 144.556 317.218 145.387C318.545 147.067 319.805 148.747 321.006 150.511C322.207 152.275 323.35 154.081 324.366 155.996C325.453 157.919 326.404 159.914 327.214 161.969L327.525 162.75L327.6 162.943L327.701 163.237L327.886 163.808C327.978 164.178 328.062 164.531 328.138 164.884C328.213 165.236 328.255 165.556 328.297 165.883C328.429 167.082 328.471 168.29 328.423 169.495C328.327 171.676 328.083 173.849 327.693 175.997C326.943 180.131 325.861 184.199 324.459 188.16L320.04 187.135C320.368 183.187 320.67 179.155 320.779 175.274C320.847 173.392 320.816 171.508 320.687 169.63C320.629 168.804 320.508 167.984 320.326 167.177L320.2 166.681L320.04 166.32L319.561 165.354C317.835 162.002 315.826 158.804 313.555 155.795C312.413 154.241 311.212 152.72 310.002 151.208C309.397 150.444 308.776 149.696 308.154 148.957L306.306 146.815L313.018 140.515Z" fill="#B65B52"/>
<path d="M320.578 185.48L317.52 188.765L323.501 192.293C323.501 192.293 325.567 189.546 324.761 186.732L320.578 185.48Z" fill="#B55B52"/>
<path d="M313.539 193.62L319.36 195.661L323.493 192.293L317.512 188.765L313.539 193.62Z" fill="#B55B52"/>
<path d="M330.305 207.077L291.858 198.677C293.776 185.684 296.583 172.839 300.258 160.23L338.713 168.63C335.19 181.277 332.382 194.113 330.305 207.077Z" fill="#5469D4"/>
<path d="M336.367 170.479L298.649 159.249L287.419 196.967L325.137 208.197L336.367 170.479Z" fill="white"/>
<path d="M291.228 115.315C291.228 115.802 290.926 116.155 290.606 116.155C290.287 116.155 290.052 115.744 290.077 115.256C290.102 114.769 290.38 114.416 290.699 114.416C291.018 114.416 291.253 114.828 291.228 115.315Z" fill="#263238"/>
<path d="M290.968 116.189C290.317 117.655 289.469 119.026 288.448 120.263C288.769 120.515 289.142 120.692 289.54 120.784C289.937 120.875 290.35 120.878 290.749 120.792L290.968 116.189Z" fill="#A02724"/>
<path d="M293.16 112.686C293.23 112.671 293.292 112.633 293.336 112.577C293.39 112.523 293.42 112.451 293.42 112.375C293.42 112.3 293.39 112.227 293.336 112.174C292.99 111.89 292.58 111.692 292.142 111.597C291.704 111.502 291.25 111.513 290.816 111.628C290.781 111.639 290.747 111.657 290.718 111.682C290.69 111.706 290.666 111.736 290.649 111.77C290.632 111.803 290.621 111.84 290.618 111.877C290.615 111.915 290.62 111.953 290.632 111.989C290.643 112.025 290.662 112.058 290.686 112.087C290.71 112.116 290.74 112.139 290.774 112.156C290.807 112.174 290.844 112.184 290.882 112.187C290.919 112.19 290.957 112.185 290.993 112.174C291.339 112.082 291.703 112.075 292.052 112.154C292.402 112.233 292.727 112.396 293 112.627C293.047 112.661 293.103 112.681 293.16 112.686Z" fill="#263238"/>
<path d="M305.844 122.304C304.92 126.731 304.324 132.854 307.373 135.803C307.373 135.803 306.113 140.288 297.889 140.288C288.859 140.288 293.597 136.357 293.597 136.357C297.368 135.19 297.394 130.914 296.579 127.478L305.844 122.304Z" fill="#B55B52"/>
<path d="M286.717 343.778C285.944 343.778 285.197 343.669 284.945 343.325C284.88 343.233 284.845 343.123 284.845 343.01C284.845 342.897 284.88 342.787 284.945 342.695C284.993 342.611 285.058 342.537 285.136 342.479C285.215 342.422 285.304 342.381 285.398 342.359C286.406 342.09 288.506 343.291 288.59 343.342C288.617 343.355 288.639 343.378 288.653 343.405C288.666 343.432 288.671 343.463 288.666 343.493C288.658 343.521 288.643 343.546 288.623 343.567C288.602 343.588 288.576 343.603 288.548 343.61C287.944 343.718 287.331 343.775 286.717 343.778ZM285.776 342.602C285.684 342.593 285.591 342.593 285.499 342.602C285.381 342.63 285.279 342.702 285.214 342.804C285.113 342.98 285.146 343.073 285.214 343.123C285.491 343.51 287.02 343.518 288.145 343.358C287.412 342.954 286.608 342.697 285.776 342.602Z" fill="#5469D4"/>
<path d="M288.549 343.61H288.49C287.759 343.283 286.331 341.972 286.448 341.292C286.448 341.132 286.6 340.931 286.986 340.889C287.135 340.865 287.288 340.875 287.433 340.917C287.578 340.959 287.712 341.033 287.826 341.132C288.582 341.762 288.725 343.392 288.733 343.459C288.731 343.51 288.71 343.558 288.675 343.594C288.656 343.605 288.635 343.612 288.613 343.615C288.592 343.618 288.57 343.616 288.549 343.61ZM287.104 341.158H287.011C286.759 341.158 286.742 341.284 286.734 341.317C286.658 341.729 287.633 342.754 288.372 343.199C288.31 342.516 288.04 341.868 287.599 341.342C287.461 341.224 287.286 341.158 287.104 341.158Z" fill="#5469D4"/>
<path d="M295.445 343.468H289.397L288.977 329.473H295.025L295.445 343.468Z" fill="#B55B52"/>
<path d="M289.195 342.77H295.798C295.917 342.77 296.034 342.81 296.127 342.885C296.22 342.96 296.285 343.065 296.31 343.182L297.436 348.55C297.464 348.681 297.461 348.817 297.429 348.947C297.397 349.078 297.336 349.199 297.251 349.303C297.165 349.406 297.057 349.489 296.935 349.544C296.813 349.6 296.68 349.628 296.545 349.625C294.168 349.625 290.733 349.448 287.734 349.448C284.239 349.448 282.03 349.642 277.923 349.642C275.445 349.642 274.789 347.122 275.831 346.903C280.569 345.87 283.618 345.761 287.734 343.241C288.167 342.95 288.674 342.787 289.195 342.77Z" fill="#263238"/>
<path d="M309.801 136.525C315.596 136.592 323.702 151.292 323.702 151.292L314.715 160.44C310.753 158.328 307.551 155.03 305.559 151.007C302.131 144.018 303.879 136.466 309.801 136.525Z" fill="#5469D4"/>
<path opacity="0.3" d="M309.801 136.525C315.596 136.592 323.702 151.292 323.702 151.292L314.715 160.44C310.753 158.328 307.551 155.03 305.559 151.007C302.131 144.018 303.879 136.466 309.801 136.525Z" fill="black"/>
<path d="M282.307 143.228C280.988 149.755 280.039 163.17 283.29 189.722H315.613C315.865 185.422 313.782 166.648 316.546 146.488C316.719 145.2 316.624 143.891 316.267 142.642C315.91 141.393 315.299 140.232 314.471 139.23C313.644 138.229 312.618 137.41 311.458 136.825C310.299 136.239 309.031 135.9 307.734 135.828H307.373C302.796 135.567 298.207 135.567 293.63 135.828C292.118 135.971 290.623 136.189 289.296 136.424C287.583 136.727 286.001 137.538 284.755 138.751C283.509 139.965 282.656 141.524 282.307 143.228Z" fill="#5469D4"/>
<path opacity="0.2" d="M282.307 143.228C280.988 149.755 280.039 163.17 283.29 189.722H315.613C315.865 185.422 313.782 166.648 316.546 146.488C316.719 145.2 316.624 143.891 316.267 142.642C315.91 141.393 315.299 140.232 314.471 139.23C313.644 138.229 312.618 137.41 311.458 136.825C310.299 136.239 309.031 135.9 307.734 135.828H307.373C302.796 135.567 298.207 135.567 293.63 135.828C292.118 135.971 290.623 136.189 289.296 136.424C287.583 136.727 286.001 137.538 284.755 138.751C283.509 139.965 282.656 141.524 282.307 143.228Z" fill="black"/>
<path opacity="0.2" d="M289.741 156.677L285.39 153.72C281.19 155.089 280.972 159.172 281.19 165.068C284.802 164.161 288.96 160.734 289.741 156.677Z" fill="black"/>
<path opacity="0.2" d="M288.977 329.473L289.195 336.689H295.243L295.025 329.473H288.977Z" fill="black"/>
<path d="M307.524 114.946C306.835 120.91 306.734 124.438 303.551 127.386C298.763 131.813 291.53 128.78 290.422 122.749C289.422 117.323 290.716 108.469 296.696 106.327C298.002 105.842 299.41 105.703 300.785 105.922C302.159 106.142 303.454 106.712 304.543 107.579C305.633 108.447 306.479 109.58 307.002 110.871C307.524 112.161 307.704 113.565 307.524 114.946Z" fill="#B55B52"/>
<path d="M294.79 117.499C292.933 117.919 292.093 113.543 293.95 111.863C292.27 111.023 289.842 109.805 289.036 107.974C288.103 105.874 290.623 103.354 292.799 103.463C292.093 102.06 293.639 98.3136 298.074 99.7248C302.509 101.136 304.592 103.32 304.592 103.32C304.592 103.32 306.054 98.4648 309.137 102.388C311.867 105.865 310.817 108.847 310.817 108.847C310.817 108.847 314.882 112.703 313.832 115.567C313.246 117.243 312.045 118.633 310.472 119.456C310.472 119.456 311.086 126.176 306.146 127.856C301.207 129.536 298.091 126.176 298.511 124.211C295.319 124.32 292.06 120.12 294.79 117.499Z" fill="#263238"/>
<path d="M296.94 117.054C296.717 118.533 296.021 119.9 294.958 120.952C293.538 122.321 292.228 121.338 292.118 119.566C292.018 117.97 292.639 115.366 294.302 114.626C295.966 113.887 297.167 115.273 296.94 117.054Z" fill="#B55B52"/>
<path d="M346.752 335.84L341.376 337.772L336.034 323.938L341.41 322.014L346.752 335.84Z" fill="#B55B52"/>
<path d="M338.99 338.646C338.386 339.125 337.73 339.486 337.31 339.385C337.205 339.349 337.112 339.281 337.046 339.191C336.98 339.101 336.943 338.993 336.941 338.881C336.928 338.785 336.935 338.687 336.961 338.593C336.987 338.499 337.032 338.412 337.092 338.335C337.722 337.495 340.108 337.142 340.208 337.134C340.237 337.129 340.267 337.133 340.294 337.145C340.321 337.157 340.344 337.177 340.36 337.201C340.374 337.227 340.382 337.256 340.382 337.285C340.382 337.315 340.374 337.344 340.36 337.369C339.94 337.832 339.482 338.26 338.99 338.646ZM337.529 338.31C337.45 338.364 337.381 338.432 337.327 338.512C337.255 338.605 337.222 338.722 337.235 338.839C337.235 339.041 337.344 339.091 337.403 339.108C337.856 339.242 339.083 338.31 339.856 337.487C339.034 337.606 338.243 337.886 337.529 338.31Z" fill="#5469D4"/>
<path d="M340.326 337.386C340.31 337.392 340.292 337.392 340.276 337.386C339.503 337.579 337.571 337.436 337.243 336.823C337.168 336.68 337.134 336.454 337.42 336.176C337.522 336.077 337.643 336 337.776 335.949C337.909 335.899 338.05 335.876 338.192 335.882C339.175 335.882 340.293 337.1 340.343 337.151C340.355 337.171 340.361 337.194 340.361 337.218C340.361 337.242 340.355 337.265 340.343 337.285C340.347 337.302 340.348 337.32 340.345 337.337C340.342 337.355 340.336 337.371 340.326 337.386ZM337.68 336.353C337.654 336.368 337.631 336.388 337.613 336.412C337.428 336.588 337.478 336.68 337.495 336.714C337.688 337.075 339.083 337.285 339.94 337.184C339.474 336.676 338.86 336.329 338.184 336.193C338.002 336.182 337.823 336.239 337.68 336.353Z" fill="#5469D4"/>
<path d="M340.351 336.294L345.542 332.212C345.639 332.138 345.757 332.098 345.879 332.098C346 332.098 346.118 332.138 346.215 332.212L350.675 335.572C350.781 335.65 350.867 335.752 350.926 335.869C350.986 335.986 351.017 336.116 351.017 336.248C351.017 336.379 350.986 336.509 350.926 336.627C350.867 336.744 350.781 336.846 350.675 336.924C348.777 338.36 345.114 341.317 342.88 343.3C340.267 345.626 342.3 344.072 339.234 346.802C337.378 348.482 335.11 347.105 335.731 346.256C338.537 342.376 339.133 340.066 339.503 337.588C339.606 337.062 339.91 336.598 340.351 336.294Z" fill="#263238"/>
<path d="M252.059 158.231L249.698 153.149L243.272 157.122C243.272 157.122 245.389 161.448 249.774 160.978L252.059 158.231Z" fill="#B55B52"/>
<path d="M243.659 151.771L242.222 153.006C242.002 153.195 241.825 153.428 241.701 153.691C241.577 153.953 241.51 154.238 241.503 154.528C241.497 154.818 241.552 155.106 241.664 155.374C241.776 155.641 241.944 155.882 242.155 156.08L243.272 157.122L249.698 153.149L245.843 151.469C245.487 151.309 245.094 151.252 244.707 151.306C244.321 151.359 243.958 151.521 243.659 151.771Z" fill="#B55B52"/>
<path opacity="0.2" d="M336.034 323.938L338.789 331.069L344.165 329.146L341.41 322.014L336.034 323.938Z" fill="black"/>
<path d="M294.756 189.722C294.756 189.722 304.836 236.149 308.7 253.386C312.9 272.252 335.152 329.633 335.152 329.633L344.913 324.341C344.913 324.341 334.471 279.325 326.844 254.772C324.072 234.478 315.613 189.722 315.613 189.722H294.756Z" fill="#263238"/>
<path d="M332.405 326.76C332.354 326.76 334.404 330.548 334.404 330.548L346.483 326.012L345.526 322.325L332.405 326.76Z" fill="#5469D4"/>
<path opacity="0.3" d="M300.72 211.243C308.33 212.26 309.187 239.064 309.044 254.797C308.944 254.302 308.826 253.831 308.734 253.386C306.625 243.97 302.669 225.842 299.494 211.327C299.891 211.208 300.31 211.179 300.72 211.243Z" fill="black"/>
<path d="M283.29 189.722C283.29 189.722 280.72 234.914 281.14 253.344C281.576 272.521 286.961 335.294 286.961 335.294H297.2C297.2 335.294 298.88 273.638 299.569 254.814C300.334 234.284 304.542 189.722 304.542 189.722H283.29Z" fill="#263238"/>
<path d="M285.046 331.212C284.995 331.212 285.566 335.462 285.566 335.462H298.024L298.41 331.674L285.046 331.212Z" fill="#5469D4"/>
<path d="M292.001 146.353C290.604 148.84 289.046 151.233 287.339 153.518C285.645 155.773 283.825 157.93 281.887 159.978C279.972 162.019 277.948 163.951 275.873 165.782C273.798 167.614 271.631 169.361 269.682 170.965L268.993 171.536L268.422 171.738C267.032 172.234 265.544 172.398 264.079 172.217C262.877 172.084 261.697 171.796 260.568 171.36C258.676 170.56 256.9 169.512 255.284 168.244C253.792 167.084 252.388 165.815 251.084 164.447C250.446 163.783 249.841 163.086 249.245 162.389C248.648 161.692 248.094 160.986 247.514 160.188L250.832 157.088C252.118 158.046 253.504 159.088 254.89 159.978C256.227 160.892 257.612 161.733 259.039 162.498C260.306 163.197 261.651 163.744 263.046 164.128C263.563 164.268 264.098 164.333 264.634 164.321C264.915 164.324 265.191 164.248 265.432 164.102L264.18 164.875C266.23 162.96 268.086 161.246 269.934 159.44C271.782 157.634 273.521 155.803 275.192 153.913C276.864 152.023 278.46 150.074 279.93 148.033C281.4 145.992 282.761 143.942 284.046 141.842L292.001 146.353Z" fill="#B65B52"/>
<path d="M296.302 145.085C295.722 153.779 285.751 161.045 285.751 161.045L272.815 153.947C272.815 153.947 277.578 143.707 283.996 138.869C291.934 132.93 296.738 138.466 296.302 145.085Z" fill="#5469D4"/>
<path opacity="0.2" d="M296.302 145.085C295.722 153.779 285.751 161.045 285.751 161.045L272.815 153.947C272.815 153.947 277.578 143.707 283.996 138.869C291.934 132.93 296.738 138.466 296.302 145.085Z" fill="black"/>
</svg>
